<svg width="32" height="32" viewBox="0 0 32 32" fill="none" xmlns="http://www.w3.org/2000/svg">
<g clip-path="url(#clip0_464_6588)">
<path d="M23.915 22H8.085L6.341 12.698L11.806 14.885L15.9965 8.599L20.1895 14.8855L25.6595 12.698L23.915 22Z" fill="#FFF72E"/>
<path d="M28.405 11.002L17.2065 0.962509C16.5445 0.366009 15.455 0.366509 14.794 0.962009L3.5955 11.0015C1.6285 12.7645 0.5 15.2915 0.5 17.9335V18.19C0.5 23.3235 4.6765 27.5 9.81 27.5C11.266 27.5 12.698 27.155 14 26.4955V28.5C12.6215 28.5 11.5 29.6215 11.5 31V31.5H20.5V31C20.5 29.6215 19.3785 28.5 18 28.5V26.4955C19.302 27.155 20.734 27.5 22.19 27.5C27.3235 27.5 31.5 23.3235 31.5 18.19V17.9335C31.5 15.2915 30.3715 12.7645 28.405 11.002ZM30.5 18.19C30.5 22.772 26.772 26.5 22.19 26.5C20.631 26.5 19.1015 26.0555 17.7665 25.215L17 24.7325V29.5H18C18.652 29.5 19.208 29.918 19.4145 30.5H12.5855C12.792 29.918 13.348 29.5 14 29.5H15V24.7325L14.2335 25.215C12.8985 26.0555 11.369 26.5 9.81 26.5C5.228 26.5 1.5 22.772 1.5 18.19V17.9335C1.5 15.575 2.507 13.32 4.263 11.746L15.4625 1.70551C15.7575 1.44101 16.2425 1.44051 16.538 1.70601L27.7365 11.746L27.737 11.7465C29.493 13.3205 30.5 15.575 30.5 17.9335V18.19Z" fill="white"/>
<path d="M22.015 24.4971L21.9845 25.4971C22.053 25.4991 22.121 25.5001 22.19 25.5001C22.4815 25.5001 22.774 25.4831 23.059 25.4486L22.941 24.4556C22.6375 24.4916 22.3275 24.5081 22.015 24.4971Z" fill="white"/>
<path d="M23.8665 24.274L24.133 25.238C27.293 24.365 29.5 21.4675 29.5 18.19V18H28.5V18.19C28.5 21.019 26.5945 23.521 23.8665 24.274Z" fill="white"/>
<path d="M11.1427 6.91907L11.8872 6.25065L12.5552 6.99474L11.8108 7.66316L11.1427 6.91907Z" fill="white"/>
<path d="M8.16565 9.58337L8.90937 8.91563L9.57745 9.65972L8.83373 10.3275L8.16565 9.58337Z" fill="white"/>
<path d="M9.66309 8.25232L10.4081 7.58432L11.0761 8.32932L10.3311 8.99732L9.66309 8.25232Z" fill="white"/>
<path d="M12.6349 5.58789L13.3795 4.92122L14.0465 5.66622L13.3019 6.33289L12.6349 5.58789Z" fill="white"/>
<path d="M11 17C10.173 17 9.5 17.673 9.5 18.5C9.5 19.327 10.173 20 11 20C11.827 20 12.5 19.327 12.5 18.5C12.5 17.673 11.827 17 11 17ZM11 19C10.724 19 10.5 18.776 10.5 18.5C10.5 18.224 10.724 18 11 18C11.276 18 11.5 18.224 11.5 18.5C11.5 18.776 11.276 19 11 19Z" fill="#130404"/>
<path d="M16 17C15.173 17 14.5 17.673 14.5 18.5C14.5 19.327 15.173 20 16 20C16.827 20 17.5 19.327 17.5 18.5C17.5 17.673 16.827 17 16 17ZM16 19C15.724 19 15.5 18.776 15.5 18.5C15.5 18.224 15.724 18 16 18C16.276 18 16.5 18.224 16.5 18.5C16.5 18.776 16.276 19 16 19Z" fill="#130404"/>
<path d="M22.5 18.5C22.5 17.673 21.827 17 21 17C20.173 17 19.5 17.673 19.5 18.5C19.5 19.327 20.173 20 21 20C21.827 20 22.5 19.327 22.5 18.5ZM21 19C20.724 19 20.5 18.776 20.5 18.5C20.5 18.224 20.724 18 21 18C21.276 18 21.5 18.224 21.5 18.5C21.5 18.776 21.276 19 21 19Z" fill="#130404"/>
</g>
<defs>
<clipPath id="clip0_464_6588">
<rect width="32" height="32" fill="white"/>
</clipPath>
</defs>
</svg>
