<svg width="32" height="32" viewBox="0 0 32 32" fill="none" xmlns="http://www.w3.org/2000/svg">
<g clip-path="url(#clip0_465_949)">
<path d="M17.2975 16.5H17.2055C16.771 16.5 16.3555 16.375 16 16.142C15.645 16.375 15.229 16.5 14.7945 16.5H14.7025C13.488 16.5 12.5 15.512 12.5 14.2975C12.5 13.642 12.789 13.0255 13.2925 12.6055L16 10.349L18.7075 12.6055C19.211 13.025 19.5 13.642 19.5 14.2975C19.5 15.512 18.512 16.5 17.2975 16.5Z" fill="#FFF72E"/>
<path d="M8 16.651L5.2925 14.3945C4.789 13.975 4.5 13.358 4.5 12.7025C4.5 11.488 5.488 10.5 6.7025 10.5H6.7945C7.229 10.5 7.6445 10.625 8 10.858C8.355 10.625 8.771 10.5 9.2055 10.5H9.2975C10.512 10.5 11.5 11.488 11.5 12.7025C11.5 13.358 11.211 13.9745 10.7075 14.3945L8 16.651Z" fill="#FFF72E"/>
<path d="M24 16.707L20.793 13.5L24 10.293L27.207 13.5L24 16.707Z" fill="#FFF72E"/>
<path d="M30.116 28.5115L31.56 21.772L29.5 20.399V10C29.5 9.173 28.827 8.5 28 8.5H26.4745C26.2135 4.046 22.518 0.5 18 0.5H14C9.482 0.5 5.7865 4.046 5.5255 8.5H4C3.173 8.5 2.5 9.173 2.5 10V20.399L0.440002 21.7725L1.884 28.512C1.112 28.572 0.500002 29.2125 0.500002 30V31.5H31.5V30C31.5 29.2125 30.888 28.572 30.116 28.5115ZM2.9045 28.5L1.747 23.0985L3.5 24.2675V28.5H2.9045ZM4 23.399L1.9015 22L4 20.601L6.0985 22L4 23.399ZM4.5 24.2675L6.253 23.0985L5.0955 28.5H4.5V24.2675ZM6.1185 28.5L6.333 27.5H25.6675L25.882 28.5H6.1185ZM20 26.5H16.5V23.5H17.5V22.5H16.5V19.5H20V26.5ZM15.5 22.5H14.5V23.5H15.5V26.5H12V19.5H15.5V22.5ZM26.9045 28.5L25.747 23.0985L27.5 24.2675V28.5H26.9045ZM28 23.399L25.9015 22L28 20.601L30.0985 22L28 23.399ZM28.5 24.2675L30.253 23.0985L29.0955 28.5H28.5V24.2675ZM9.793 4.5L8.5 5.793L7.682 4.975C7.7865 4.812 7.898 4.6545 8.014 4.5H9.793ZM23.9855 4.5C24.102 4.6545 24.2135 4.812 24.3175 4.975L23.5 5.793L22.207 4.5H23.9855ZM24.8165 5.8905C25.073 6.45 25.262 7.0445 25.3745 7.6675L24.207 6.5L24.8165 5.8905ZM22.793 6.5L21 8.293L19.207 6.5L21 4.707L22.793 6.5ZM18.5 5.793L17.207 4.5H19.793L18.5 5.793ZM17.793 6.5L16 8.293L14.207 6.5L16 4.707L17.793 6.5ZM13.5 5.793L12.207 4.5H14.793L13.5 5.793ZM12.793 6.5L11 8.293L9.207 6.5L11 4.707L12.793 6.5ZM7.793 6.5L6.6255 7.6675C6.738 7.045 6.927 6.45 7.1835 5.8905L7.793 6.5ZM8.5 7.207L9.793 8.5H7.207L8.5 7.207ZM13.5 7.207L14.793 8.5H12.207L13.5 7.207ZM18.5 7.207L19.793 8.5H17.207L18.5 7.207ZM23.5 7.207L24.793 8.5H22.207L23.5 7.207ZM18 1.5C19.9615 1.5 21.744 2.263 23.0815 3.5H8.9185C10.256 2.263 12.0385 1.5 14 1.5H18ZM3.5 10C3.5 9.7245 3.7245 9.5 4 9.5H28C28.2755 9.5 28.5 9.7245 28.5 10V19.7325L28 19.399L24.44 21.7725L25.453 26.5H21V18.5H11V26.5H6.547L7.56 21.7725L4 19.399L3.5 19.7325V10ZM6.5 30.5H1.5V30C1.5 29.7245 1.7245 29.5 2 29.5H6C6.2755 29.5 6.5 29.7245 6.5 30V30.5ZM24.5 30.5H7.5V30C7.5 29.824 7.464 29.657 7.408 29.5H24.5925C24.536 29.657 24.5 29.824 24.5 30V30.5ZM30.5 30.5H25.5V30C25.5 29.7245 25.7245 29.5 26 29.5H30C30.2755 29.5 30.5 29.7245 30.5 30V30.5Z" fill="white"/>
<path d="M16.5 16.3805C16.3245 16.3215 16.1555 16.244 16 16.1415C15.8445 16.2435 15.6755 16.321 15.5 16.3805V17.5H16.5V16.3805Z" fill="white"/>
</g>
<defs>
<clipPath id="clip0_465_949">
<rect width="32" height="32" fill="white"/>
</clipPath>
</defs>
</svg>
