<svg width="32" height="32" viewBox="0 0 32 32" fill="none" xmlns="http://www.w3.org/2000/svg">
<g clip-path="url(#clip0_465_935)">
<path d="M16.2795 3.233L17.258 1.7645L15.991 1.2575C14.734 0.755 13.41 0.5 12.056 0.5H10.524C9.4285 0.5 8.367 0.8215 7.4545 1.429C6.2305 2.2455 5.5 3.611 5.5 5.0815C5.5 5.7595 5.66 6.4385 5.963 7.044L6.1335 7.387C6.3685 6.865 6.8905 6.5 7.5 6.5H8V5.5H8.197C9.3725 5.5 10.5215 5.152 11.5 4.5C12.478 5.152 13.6275 5.5 14.803 5.5H15V6.5H15.5C16.3285 6.5 17 7.1715 17 8L17.0225 7.5335L17.1255 7.1635C17.374 6.27 17.5 5.346 17.5 4.419V3.6395L16.2795 3.233Z" fill="#FFF72E"/>
<path d="M25 9.8335L22.875 7L25 4.1665L27.125 7L25 9.8335Z" fill="#FFF72E"/>
<path d="M10 8C10.2761 8 10.5 7.77614 10.5 7.5C10.5 7.22386 10.2761 7 10 7C9.72386 7 9.5 7.22386 9.5 7.5C9.5 7.77614 9.72386 8 10 8Z" fill="white"/>
<path d="M13 8C13.2761 8 13.5 7.77614 13.5 7.5C13.5 7.22386 13.2761 7 13 7C12.7239 7 12.5 7.22386 12.5 7.5C12.5 7.77614 12.7239 8 13 8Z" fill="white"/>
<path d="M13.3945 9.829L13.447 9.7235L12.5525 9.276L12.5 9.382C12.3095 9.763 11.9265 10 11.5 10C11.0735 10 10.6905 9.763 10.5 9.382L10.4475 9.2765L9.55304 9.724L9.60554 9.8295C9.96654 10.5515 10.6925 11 11.5 11C12.3075 11 13.0335 10.5515 13.3945 9.829Z" fill="white"/>
<path d="M25 13.5C28.584 13.5 31.5 10.584 31.5 7C31.5 3.416 28.584 0.5 25 0.5C21.416 0.5 18.5 3.416 18.5 7C18.5 10.584 21.416 13.5 25 13.5ZM25 3.5C26.9295 3.5 28.5 5.0705 28.5 7C28.5 8.9295 26.9295 10.5 25 10.5C23.0705 10.5 21.5 8.9295 21.5 7C21.5 5.0705 23.0705 3.5 25 3.5ZM22.1945 10.5125C22.842 11.0305 23.6335 11.374 24.5 11.4705V12.4745C23.3585 12.371 22.317 11.919 21.483 11.224L22.1945 10.5125ZM25.5 11.4705C26.3665 11.374 27.158 11.0305 27.8055 10.5125L28.517 11.224C27.6835 11.9195 26.6415 12.371 25.5 12.4745V11.4705ZM28.5125 9.8055C29.0305 9.158 29.374 8.3665 29.4705 7.5H30.4745C30.371 8.6415 29.919 9.683 29.224 10.517L28.5125 9.8055ZM29.4705 6.5C29.374 5.6335 29.0305 4.842 28.5125 4.1945L29.224 3.483C29.9195 4.3165 30.371 5.3585 30.4745 6.5H29.4705ZM27.8055 3.4875C27.158 2.9695 26.3665 2.626 25.5 2.5295V1.5255C26.6415 1.629 27.683 2.081 28.517 2.776L27.8055 3.4875ZM24.5 2.5295C23.6335 2.626 22.842 2.9695 22.1945 3.4875L21.483 2.776C22.317 2.0805 23.3585 1.629 24.5 1.5255V2.5295ZM21.4875 4.1945C20.9695 4.842 20.626 5.6335 20.5295 6.5H19.5255C19.629 5.3585 20.081 4.317 20.776 3.483L21.4875 4.1945ZM20.5295 7.5C20.626 8.3665 20.9695 9.158 21.4875 9.8055L20.776 10.517C20.0805 9.6835 19.629 8.6415 19.5255 7.5H20.5295Z" fill="white"/>
<path d="M28 18.4999H24C23.349 18.4999 22.799 18.9194 22.592 19.4999H20.5V18.1339C20.5 16.9469 20.0375 15.8309 19.198 14.9914C18.5755 14.3689 17.79 13.9484 16.9265 13.7754L13.5 13.0899V12.4589C14.414 11.9284 15.0975 11.0474 15.3685 9.99993H15.5C16.603 9.99993 17.5 9.10293 17.5 7.99993C17.5 6.89693 16.603 5.99993 15.5 5.99993V4.99993H14.8025C13.7225 4.99993 12.676 4.68293 11.777 4.08393L11.5 3.89893L11.2225 4.08393C10.3235 4.68293 9.2775 4.99993 8.1975 4.99993H7.5V5.99993C6.397 5.99993 5.5 6.89693 5.5 7.99993C5.5 9.10293 6.397 9.99993 7.5 9.99993H7.6315C7.9025 11.0474 8.586 11.9279 9.5 12.4589V13.0899L6.073 13.7754C5.2095 13.9484 4.424 14.3689 3.8015 14.9914C2.9625 15.8304 2.5 16.9469 2.5 18.1339V19.4999H0.5V31.4999H31.5V19.4999H29.408C29.201 18.9194 28.651 18.4999 28 18.4999ZM16.5 7.99993C16.5 8.55143 16.0515 8.99993 15.5 8.99993V6.99993C16.0515 6.99993 16.5 7.44843 16.5 7.99993ZM6.5 7.99993C6.5 7.44843 6.9485 6.99993 7.5 6.99993V8.99993C6.9485 8.99993 6.5 8.55143 6.5 7.99993ZM28.5 25.9999C28.5 26.2759 28.276 26.4999 28 26.4999H24C23.724 26.4999 23.5 26.2759 23.5 25.9999C23.5 25.7239 23.724 25.4999 24 25.4999H28C28.276 25.4999 28.5 25.7239 28.5 25.9999ZM28.5 21.9999C28.5 22.2759 28.276 22.4999 28 22.4999H24C23.724 22.4999 23.5 22.2759 23.5 21.9999C23.5 21.7239 23.724 21.4999 24 21.4999H28C28.276 21.4999 28.5 21.7239 28.5 21.9999ZM28.5 23.9999C28.5 24.2759 28.276 24.4999 28 24.4999H24C23.724 24.4999 23.5 24.2759 23.5 23.9999C23.5 23.7239 23.724 23.4999 24 23.4999H28C28.276 23.4999 28.5 23.7239 28.5 23.9999ZM24 19.4999H28C28.276 19.4999 28.5 19.7239 28.5 19.9999C28.5 20.2759 28.276 20.4999 28 20.4999H24C23.724 20.4999 23.5 20.2759 23.5 19.9999C23.5 19.7239 23.724 19.4999 24 19.4999ZM8.5 8.99993V5.99293C9.5615 5.94343 10.5875 5.63493 11.5 5.09043C12.4125 5.63493 13.4385 5.94343 14.5 5.99293V8.99993C14.5 10.6544 13.1545 11.9999 11.5 11.9999C9.8455 11.9999 8.5 10.6544 8.5 8.99993ZM11.5 12.9999C11.846 12.9999 12.1795 12.9514 12.5 12.8684V13.4999C12.5 14.0514 12.0515 14.4999 11.5 14.4999C10.9485 14.4999 10.5 14.0514 10.5 13.4999V12.8684C10.8205 12.9514 11.154 12.9999 11.5 12.9999ZM3.5 18.1339C3.5 17.2139 3.8585 16.3489 4.509 15.6984C4.9915 15.2159 5.6005 14.8899 6.2695 14.7559L9.599 14.0899C9.8525 14.9039 10.6035 15.4999 11.5 15.4999C12.3965 15.4999 13.1475 14.9039 13.401 14.0899L16.7305 14.7559C17.4 14.8899 18.009 15.2159 18.491 15.6984C19.1415 16.3484 19.5 17.2139 19.5 18.1339V20.9999C19.5 21.8269 18.827 22.4999 18 22.4999H16.5V20.4999C17.0515 20.4999 17.5 20.0514 17.5 19.4999V17.4999H16.5V19.4999H14.5V17.9999C14.5 17.1729 13.827 16.4999 13 16.4999H10C9.173 16.4999 8.5 17.1729 8.5 17.9999V19.4999H6.5V17.4999H5.5V19.4999C5.5 20.0514 5.9485 20.4999 6.5 20.4999V22.4999H5C4.173 22.4999 3.5 21.8269 3.5 20.9999V18.1339ZM10.5 20.4999C11.0515 20.4999 11.5 20.9484 11.5 21.4999C11.5 22.0514 11.0515 22.4999 10.5 22.4999H10H7.5V20.4999H10.5ZM10.5 19.4999H9.5V17.9999C9.5 17.7239 9.724 17.4999 10 17.4999H13C13.276 17.4999 13.5 17.7239 13.5 17.9999V22.4999H12.222C12.394 22.2044 12.5 21.8659 12.5 21.4999C12.5 20.3969 11.603 19.4999 10.5 19.4999ZM14.5 20.4999H15.5V22.4999H14.5V20.4999ZM1.5 30.4999V29.4999H30.5V30.4999H1.5ZM30.5 28.4999H1.5V20.4999H2.5V20.9999C2.5 22.3784 3.6215 23.4999 5 23.4999H10H10.5H18C19.3785 23.4999 20.5 22.3784 20.5 20.9999V20.4999H22.592C22.6585 20.6869 22.7595 20.8554 22.89 20.9999C22.65 21.2659 22.5 21.6144 22.5 21.9999C22.5 22.3854 22.6505 22.7339 22.89 22.9999C22.65 23.2659 22.5 23.6144 22.5 23.9999C22.5 24.3854 22.6505 24.7339 22.89 24.9999C22.65 25.2659 22.5 25.6144 22.5 25.9999C22.5 26.8269 23.173 27.4999 24 27.4999H28C28.827 27.4999 29.5 26.8269 29.5 25.9999C29.5 25.6144 29.3495 25.2659 29.11 24.9999C29.35 24.7339 29.5 24.3854 29.5 23.9999C29.5 23.6144 29.3495 23.2659 29.11 22.9999C29.35 22.7339 29.5 22.3854 29.5 21.9999C29.5 21.6144 29.3495 21.2659 29.11 20.9999C29.24 20.8554 29.3415 20.6869 29.408 20.4999H30.5V28.4999Z" fill="white"/>
</g>
<defs>
<clipPath id="clip0_465_935">
<rect width="32" height="32" fill="white"/>
</clipPath>
</defs>
</svg>
