<svg width="32" height="32" viewBox="0 0 32 32" fill="none" xmlns="http://www.w3.org/2000/svg">
<g clip-path="url(#clip0_465_919)">
<path d="M25 16.8335L22.875 14L25 11.1665L27.125 14L25 16.8335Z" fill="#FFF72E"/>
<path d="M22 31.5C17.8645 31.5 14.5 28.1355 14.5 24C14.5 19.8645 17.8645 16.5 22 16.5C26.1355 16.5 29.5 19.8645 29.5 24C29.5 28.1355 26.1355 31.5 22 31.5ZM22 19C19.243 19 17 21.243 17 24C17 26.757 19.243 29 22 29C24.757 29 27 26.757 27 24C27 21.243 24.757 19 22 19Z" fill="#FFF72E"/>
<path d="M22 31.5C17.8645 31.5 14.5 28.1355 14.5 24C14.5 19.8645 17.8645 16.5 22 16.5C26.1355 16.5 29.5 19.8645 29.5 24C29.5 28.1355 26.1355 31.5 22 31.5ZM22 19C19.243 19 17 21.243 17 24C17 26.757 19.243 29 22 29C24.757 29 27 26.757 27 24C27 21.243 24.757 19 22 19Z" fill="#FFF72E"/>
<path d="M15.7295 28.1035C15.195 28.796 14.4215 29.37 13.5 29.7815V28.8645C14.243 28.5765 14.92 28.1965 15.5045 27.733C15.3325 27.435 15.179 27.1255 15.049 26.803C13.8135 27.867 11.96 28.5 10 28.5C6.416 28.5 3.5 26.481 3.5 24C3.5 21.519 6.416 19.5 10 19.5C11.96 19.5 13.8135 20.133 15.0485 21.197C15.179 20.8745 15.3325 20.565 15.5045 20.2665C14.944 19.8225 14.2965 19.4565 13.5895 19.1735C14.1365 18.816 14.5 18.2005 14.5 17.5C14.5 16.628 13.936 15.893 13.156 15.6195C13.373 15.3 13.5 14.9145 13.5 14.5C13.5 14.0855 13.373 13.7 13.156 13.3805C13.936 13.107 14.5 12.372 14.5 11.5C14.5 10.628 13.936 9.893 13.156 9.6195C13.373 9.3 13.5 8.9145 13.5 8.5C13.5 8.0855 13.373 7.7 13.156 7.3805C13.936 7.107 14.5 6.372 14.5 5.5C14.5 4.628 13.936 3.893 13.156 3.6195C13.373 3.3 13.5 2.9145 13.5 2.5C13.5 1.397 12.603 0.5 11.5 0.5H2.5C1.397 0.5 0.5 1.397 0.5 2.5C0.5 3.372 1.064 4.107 1.844 4.3805C1.627 4.7 1.5 5.0855 1.5 5.5C1.5 5.9145 1.627 6.3 1.844 6.6195C1.064 6.893 0.5 7.628 0.5 8.5C0.5 9.372 1.064 10.107 1.844 10.3805C1.627 10.7 1.5 11.0855 1.5 11.5C1.5 11.9145 1.627 12.3 1.844 12.6195C1.064 12.893 0.5 13.628 0.5 14.5C0.5 15.372 1.064 16.107 1.844 16.3805C1.627 16.7 1.5 17.0855 1.5 17.5C1.5 17.9145 1.627 18.3 1.844 18.6195C1.064 18.893 0.5 19.628 0.5 20.5C0.5 21.603 1.397 22.5 2.5 22.5H2.7905C2.6055 22.9775 2.5 23.4795 2.5 24V26C2.5 29.0325 5.8645 31.5 10 31.5C12.63 31.5 14.993 30.524 16.3525 28.9195C16.1275 28.6615 15.918 28.3905 15.7295 28.1035ZM6.5 9.5H4.5V7.5H6.5V9.5ZM7.5 10.5V12.5H5.5V10.5H7.5ZM6.5 13.5V15.5H4.5V13.5H6.5ZM4.5 12.5H3.5C2.9485 12.5 2.5 12.0515 2.5 11.5C2.5 10.9485 2.9485 10.5 3.5 10.5H4.5V12.5ZM4.5 16.5V18.5H3.5C2.9485 18.5 2.5 18.0515 2.5 17.5C2.5 16.9485 2.9485 16.5 3.5 16.5H4.5ZM4.5 20.2735V19.5H5.701C5.263 19.7255 4.8625 19.986 4.5 20.2735ZM7.5 18.5H5.5V16.5H7.5V18.5ZM7.5 13.5H9.5V15.5H7.5V13.5ZM9.5 9.5H7.5V7.5H9.5V9.5ZM10.5 10.5V12.5H8.5V10.5H10.5ZM10.5 18.5H8.5V16.5H10.5V18.5ZM10.5 13.5H11.5C12.0515 13.5 12.5 13.9485 12.5 14.5C12.5 15.0515 12.0515 15.5 11.5 15.5H10.5V13.5ZM10.5 9.5V7.5H11.5C12.0515 7.5 12.5 7.9485 12.5 8.5C12.5 9.0515 12.0515 9.5 11.5 9.5H10.5ZM13.5 17.5C13.5 18.0515 13.0515 18.5 12.5 18.5H11.5V16.5H12.5C13.0515 16.5 13.5 16.9485 13.5 17.5ZM13.5 11.5C13.5 12.0515 13.0515 12.5 12.5 12.5H11.5V10.5H12.5C13.0515 10.5 13.5 10.9485 13.5 11.5ZM13.5 5.5C13.5 6.0515 13.0515 6.5 12.5 6.5H11.5V4.5H12.5C13.0515 4.5 13.5 4.9485 13.5 5.5ZM10.5 1.5H11.5C12.0515 1.5 12.5 1.9485 12.5 2.5C12.5 3.0515 12.0515 3.5 11.5 3.5H10.5V1.5ZM10.5 6.5H8.5V4.5H10.5V6.5ZM7.5 1.5H9.5V3.5H7.5V1.5ZM7.5 6.5H5.5V4.5H7.5V6.5ZM4.5 1.5H6.5V3.5H4.5V1.5ZM4.5 6.5H3.5C2.9485 6.5 2.5 6.0515 2.5 5.5C2.5 4.9485 2.9485 4.5 3.5 4.5H4.5V6.5ZM1.5 2.5C1.5 1.9485 1.9485 1.5 2.5 1.5H3.5V3.5H2.5C1.9485 3.5 1.5 3.0515 1.5 2.5ZM1.5 8.5C1.5 7.9485 1.9485 7.5 2.5 7.5H3.5V9.5H2.5C1.9485 9.5 1.5 9.0515 1.5 8.5ZM1.5 14.5C1.5 13.9485 1.9485 13.5 2.5 13.5H3.5V15.5H2.5C1.9485 15.5 1.5 15.0515 1.5 14.5ZM2.5 21.5C1.9485 21.5 1.5 21.0515 1.5 20.5C1.5 19.9485 1.9485 19.5 2.5 19.5H3.5V21.268C3.44 21.344 3.383 21.4215 3.328 21.5H2.5ZM6.5 29.786C5.043 29.138 3.98 28.1015 3.628 26.887C4.33 27.717 5.319 28.402 6.5 28.861V29.786ZM9.5 30.4825C8.7965 30.445 8.1235 30.3335 7.5 30.153V29.1795C8.1325 29.3445 8.8025 29.448 9.5 29.482V30.4825ZM12.5 30.1455C11.87 30.33 11.1965 30.448 10.5 30.486V29.479C11.1915 29.446 11.8635 29.3515 12.5 29.1875V30.1455Z" fill="white"/>
<path d="M22.5 20.5H21.5V21.5C20.673 21.5 20 22.173 20 23C20 23.827 20.673 24.5 21.5 24.5H22.5C22.776 24.5 23 24.7245 23 25C23 25.2755 22.776 25.5 22.5 25.5H21V25H20V26.5H21.5V27.5H22.5V26.5C23.327 26.5 24 25.827 24 25C24 24.173 23.327 23.5 22.5 23.5H21.5C21.224 23.5 21 23.2755 21 23C21 22.7245 21.224 22.5 21.5 22.5H23V23H24V21.5H22.5V20.5Z" fill="white"/>
<path d="M28.13 19.6925C30.1945 18.5575 31.5 16.388 31.5 14C31.5 10.416 28.584 7.5 25 7.5C21.416 7.5 18.5 10.416 18.5 14C18.5 15.062 18.7615 16.0965 19.254 17.0275C19.5705 16.9025 19.8975 16.8 20.233 16.7185C19.842 16.0345 19.5965 15.2825 19.525 14.4995H20.5285C20.611 15.233 20.876 15.93 21.2905 16.5355C21.3595 16.529 21.4305 16.53 21.4995 16.525V18.525C20.358 18.6285 19.3165 19.0805 18.4825 19.7755L17.0495 18.3425L16.3425 19.0495L17.7755 20.4825C17.08 21.316 16.6285 22.358 16.525 23.4995H14.519C14.5495 23.0715 14.617 22.6535 14.715 22.2475C13.796 21.257 12.126 20.5 10 20.5C6.71 20.5 4.5 22.31 4.5 24C4.5 25.69 6.71 27.5 10 27.5C12.126 27.5 13.796 26.743 14.715 25.752C14.617 25.3455 14.55 24.928 14.519 24.5H16.525C16.6285 25.6415 17.0805 26.683 17.7755 27.517L16.3425 28.95L17.0495 29.657L18.4825 28.224C19.316 28.9195 20.358 29.371 21.4995 29.4745V31.5H22.4995V29.4745C23.641 29.371 24.6825 28.919 25.5165 28.224L26.9495 29.657L27.6565 28.95L26.2235 27.517C26.919 26.6835 27.3705 25.6415 27.474 24.5H29.5V23.5H27.4745C27.371 22.3585 26.919 21.317 26.224 20.483L27.6345 19.0725C27.809 19.2715 27.977 19.4755 28.13 19.6925ZM10 26.5C7.212 26.5 5.5 25.044 5.5 24C5.5 22.956 7.212 21.5 10 21.5C12.788 21.5 14.5 22.956 14.5 24C14.5 25.044 12.788 26.5 10 26.5ZM29.2245 17.517L28.5095 16.8015C29.0295 16.1515 29.3725 15.3595 29.4695 14.4995H30.4755C30.3725 15.6255 29.9275 16.6725 29.2245 17.517ZM30.4745 13.5H29.4705C29.374 12.6335 29.0305 11.842 28.5125 11.1945L29.224 10.483C29.9195 11.317 30.371 12.3585 30.4745 13.5ZM25.5 8.5255C26.6415 8.629 27.6835 9.081 28.517 9.7765L27.8055 10.488C27.158 9.97 26.3665 9.626 25.5 9.53V8.5255ZM20.5295 13.5H19.5255C19.629 12.3585 20.081 11.317 20.776 10.483L21.4875 11.1945C20.9695 11.842 20.626 12.6335 20.5295 13.5ZM21.483 9.776C22.3165 9.0805 23.3585 8.6285 24.5 8.525V9.529C23.6335 9.6255 22.8415 9.969 22.1945 10.487L21.483 9.776ZM26.5 24C26.5 26.481 24.4815 28.5 22 28.5C19.5185 28.5 17.5 26.481 17.5 24C17.5 21.519 19.5185 19.5 22 19.5C24.4815 19.5 26.5 21.519 26.5 24ZM26.9495 18.3435L25.5165 19.7765C24.683 19.081 23.641 18.6295 22.4995 18.526V16.526C22.5305 16.5285 22.562 16.5285 22.593 16.5305C21.899 15.869 21.5 14.958 21.5 14C21.5 12.07 23.0705 10.5 25 10.5C26.9295 10.5 28.5 12.07 28.5 14C28.5 15.692 27.273 17.14 25.622 17.437C26.001 17.647 26.359 17.8895 26.694 18.1595C27.0965 17.995 27.4715 17.779 27.805 17.512L28.5185 18.226C28.2085 18.484 27.8595 18.6985 27.492 18.886L26.9495 18.3435Z" fill="white"/>
<path d="M28.13 19.6925C30.1945 18.5575 31.5 16.388 31.5 14C31.5 10.416 28.584 7.5 25 7.5C21.416 7.5 18.5 10.416 18.5 14C18.5 15.062 18.7615 16.0965 19.254 17.0275C19.5705 16.9025 19.8975 16.8 20.233 16.7185C19.842 16.0345 19.5965 15.2825 19.525 14.4995H20.5285C20.611 15.233 20.876 15.93 21.2905 16.5355C21.3595 16.529 21.4305 16.53 21.4995 16.525V18.525C20.358 18.6285 19.3165 19.0805 18.4825 19.7755L17.0495 18.3425L16.3425 19.0495L17.7755 20.4825C17.08 21.316 16.6285 22.358 16.525 23.4995H14.519C14.5495 23.0715 14.617 22.6535 14.715 22.2475C13.796 21.257 12.126 20.5 10 20.5C6.71 20.5 4.5 22.31 4.5 24C4.5 25.69 6.71 27.5 10 27.5C12.126 27.5 13.796 26.743 14.715 25.752C14.617 25.3455 14.55 24.928 14.519 24.5H16.525C16.6285 25.6415 17.0805 26.683 17.7755 27.517L16.3425 28.95L17.0495 29.657L18.4825 28.224C19.316 28.9195 20.358 29.371 21.4995 29.4745V31.5H22.4995V29.4745C23.641 29.371 24.6825 28.919 25.5165 28.224L26.9495 29.657L27.6565 28.95L26.2235 27.517C26.919 26.6835 27.3705 25.6415 27.474 24.5H29.5V23.5H27.4745C27.371 22.3585 26.919 21.317 26.224 20.483L27.6345 19.0725C27.809 19.2715 27.977 19.4755 28.13 19.6925ZM10 26.5C7.212 26.5 5.5 25.044 5.5 24C5.5 22.956 7.212 21.5 10 21.5C12.788 21.5 14.5 22.956 14.5 24C14.5 25.044 12.788 26.5 10 26.5ZM29.2245 17.517L28.5095 16.8015C29.0295 16.1515 29.3725 15.3595 29.4695 14.4995H30.4755C30.3725 15.6255 29.9275 16.6725 29.2245 17.517ZM30.4745 13.5H29.4705C29.374 12.6335 29.0305 11.842 28.5125 11.1945L29.224 10.483C29.9195 11.317 30.371 12.3585 30.4745 13.5ZM25.5 8.5255C26.6415 8.629 27.6835 9.081 28.517 9.7765L27.8055 10.488C27.158 9.97 26.3665 9.626 25.5 9.53V8.5255ZM20.5295 13.5H19.5255C19.629 12.3585 20.081 11.317 20.776 10.483L21.4875 11.1945C20.9695 11.842 20.626 12.6335 20.5295 13.5ZM21.483 9.776C22.3165 9.0805 23.3585 8.6285 24.5 8.525V9.529C23.6335 9.6255 22.8415 9.969 22.1945 10.487L21.483 9.776ZM26.5 24C26.5 26.481 24.4815 28.5 22 28.5C19.5185 28.5 17.5 26.481 17.5 24C17.5 21.519 19.5185 19.5 22 19.5C24.4815 19.5 26.5 21.519 26.5 24ZM26.9495 18.3435L25.5165 19.7765C24.683 19.081 23.641 18.6295 22.4995 18.526V16.526C22.5305 16.5285 22.562 16.5285 22.593 16.5305C21.899 15.869 21.5 14.958 21.5 14C21.5 12.07 23.0705 10.5 25 10.5C26.9295 10.5 28.5 12.07 28.5 14C28.5 15.692 27.273 17.14 25.622 17.437C26.001 17.647 26.359 17.8895 26.694 18.1595C27.0965 17.995 27.4715 17.779 27.805 17.512L28.5185 18.226C28.2085 18.484 27.8595 18.6985 27.492 18.886L26.9495 18.3435Z" fill="white"/>
</g>
<defs>
<clipPath id="clip0_465_919">
<rect width="32" height="32" fill="white"/>
</clipPath>
</defs>
</svg>
