<svg width="32" height="32" viewBox="0 0 32 32" fill="none" xmlns="http://www.w3.org/2000/svg">
<path d="M11 8.5L8.5 12.5L16 22L23.5 12.5L21 8.5H11Z" fill="#FFF72E"/>
<path d="M30.268 13.47L30.2165 13.315C29.8285 12.143 28.998 11.1895 27.8785 10.63L27.3195 10.3505L27.6015 9.8075C28.165 8.723 28.268 7.4375 27.884 6.28L27.8325 6.125C27.286 4.4755 25.8435 3.2735 24.1135 2.9995C23.3115 1.4725 21.703 0.5 19.9395 0.5H19.7735C18.5205 0.5 17.3425 0.979 16.4545 1.848L16 2.2935L15.5455 1.8475C14.6575 0.979 13.4795 0.5 12.2265 0.5H12.0605C10.297 0.5 8.68853 1.4725 7.88553 3.0005C6.15503 3.275 4.71253 4.4765 4.16653 6.126L4.11503 6.281C3.73103 7.4385 3.83403 8.724 4.39753 9.8085L4.67953 10.3515L4.12003 10.631C3.00103 11.1905 2.17103 12.144 1.78253 13.316L1.73203 13.47C1.18453 15.1205 1.63053 16.926 2.86603 18.149C2.60103 19.85 3.32103 21.5655 4.75103 22.5835L4.88553 22.679C5.90003 23.401 7.14003 23.693 8.37603 23.501L9.00953 23.403L9.10803 24.014C9.30553 25.233 9.97353 26.303 10.992 27.0275L11.1255 27.122C12.009 27.751 13.067 28.0425 14.1155 27.9915L14.007 29.405C14.002 29.4545 14 29.5055 14 29.5555C14 30.628 14.872 31.5 15.9445 31.5H16.056C17.128 31.5 18 30.628 18 29.5555C18 29.505 17.998 29.4545 17.994 29.4065L17.885 27.986C17.963 27.99 18.0415 27.9995 18.1195 27.9995C19.09 27.9995 20.0575 27.7045 20.8745 27.1225L21.01 27.027C22.027 26.303 22.6955 25.2325 22.893 24.014L22.9915 23.403L23.625 23.501C24.8605 23.6935 26.101 23.4015 27.1155 22.679L27.25 22.5835C28.6795 21.5655 29.4 19.85 29.135 18.149C30.3695 16.926 30.8155 15.1205 30.268 13.47ZM19.7735 1.5H19.9395C21.407 1.5 22.7365 2.3505 23.3265 3.6665L23.445 3.931L23.7335 3.9595C25.1955 4.103 26.432 5.077 26.884 6.4405L26.9355 6.5955C27.239 7.5115 27.1605 8.4885 26.7145 9.3465L26.3085 10.128L26.3075 10.125L23.23 11.125L21.2775 8H16.5V3.204L17.155 2.562C17.854 1.877 18.784 1.5 19.7735 1.5ZM17.094 19.8075L18.8855 13H22.4685L17.094 19.8075ZM9.53153 13H13.1145L14.906 19.8075L9.53153 13ZM17.8515 13L16 20.0355L14.1485 13H17.8515ZM14.402 12L16 9.443L17.598 12H14.402ZM21 9.4435L22.598 12H19.402L21 9.4435ZM18.5 11.557L16.902 9H20.098L18.5 11.557ZM13.5 11.557L11.902 9H15.098L13.5 11.557ZM11 9.4435L12.598 12H9.40203L11 9.4435ZM5.06453 6.5955L5.11603 6.4405C5.56753 5.0765 6.80453 4.103 8.26653 3.9595L8.55503 3.931L8.67353 3.6665C9.26353 2.3505 10.5935 1.5 12.0605 1.5H12.2265C13.216 1.5 14.146 1.877 14.845 2.5625L15.5 3.204V8H10.7225L8.76953 11.125L5.69253 10.1255L5.69153 10.1285L5.28553 9.347C4.83953 8.4885 4.76053 7.5115 5.06453 6.5955ZM8.22203 22.5125C7.24303 22.6645 6.26553 22.434 5.46453 21.8645L5.33003 21.769C4.14803 20.927 3.58453 19.479 3.89553 18.079L3.95953 17.7895L3.73653 17.594C2.64403 16.639 2.23003 15.144 2.68103 13.7845L2.73253 13.6295C3.03653 12.712 3.68803 11.964 4.56753 11.525L5.43403 11.0925L8.22353 11.999L7.88953 12.5335L12.346 18.1785L9.32103 22.342L8.22203 22.5125ZM16.997 29.485C16.999 29.5085 17 29.5315 17 29.5555C17 30.076 16.576 30.5 16.0555 30.5H15.944C15.424 30.5 15 30.076 15 29.5555C15 29.5315 15.001 29.508 15.003 29.4825L15.1305 27.822C15.427 27.7415 15.72 27.6425 16 27.5035C16.2805 27.643 16.573 27.7455 16.87 27.826L16.997 29.485ZM20.4305 26.212L20.295 26.3075C19.107 27.1535 17.518 27.2305 16.248 26.5035L16 26.3615L15.7515 26.5035C14.4815 27.2305 12.893 27.154 11.7035 26.307L11.57 26.2125C10.7725 25.6445 10.248 24.8065 10.0945 23.8545L9.97903 23.1375L12.9895 18.994L16 22.807L19.0105 18.9935L22.021 23.137L21.9055 23.854C21.7515 24.8065 21.227 25.6445 20.4305 26.212ZM28.104 18.079C28.415 19.479 27.8515 20.927 26.6695 21.769L26.535 21.8645C25.734 22.4345 24.7535 22.6655 23.7775 22.5125L22.6785 22.342L19.6535 18.1785L24.11 12.5335L23.776 11.999L26.5655 11.0925L27.4315 11.525C28.3115 11.9645 28.963 12.712 29.267 13.6295L29.3185 13.7845C29.769 15.1435 29.355 16.6385 28.263 17.594L28.04 17.7895L28.104 18.079Z" fill="white"/>
<path d="M6.61151 9.73051L7.49901 9.26951L7.06001 8.42451C6.86451 8.04951 6.83051 7.62401 6.96351 7.22451L7.01451 7.07001C7.18301 6.56251 7.60351 6.16701 8.13951 6.01201L7.86101 5.05151C7.00851 5.29851 6.33701 5.93551 6.06451 6.75601L6.01351 6.91051C5.79501 7.56751 5.85201 8.26901 6.17201 8.88601L6.61151 9.73051Z" fill="white"/>
<path d="M27.038 17.8915L26.0615 18.1085L26.1515 18.513C26.288 19.127 26.0365 19.765 25.509 20.1405L25.3745 20.236C25.01 20.496 24.531 20.605 24.085 20.537L22.5765 20.303L22.423 21.2915L23.933 21.5255C24.0725 21.547 24.2155 21.558 24.3585 21.558C24.9285 21.558 25.495 21.378 25.955 21.05L26.0895 20.9545C26.944 20.3465 27.3515 19.303 27.128 18.2965L27.038 17.8915Z" fill="white"/>
</svg>
